<?xml version="1.0" encoding="UTF-8" standalone="no"?>
<!DOCTYPE svg PUBLIC "-//W3C//DTD SVG 1.1//EN" "http://www.w3.org/Graphics/SVG/1.1/DTD/svg11.dtd">
<svg width="100%" height="100%" viewBox="0 0 449 95" version="1.1" xmlns="http://www.w3.org/2000/svg" xmlns:xlink="http://www.w3.org/1999/xlink" xml:space="preserve" xmlns:serif="http://www.serif.com/" style="fill-rule:evenodd;clip-rule:evenodd;stroke-linejoin:round;stroke-miterlimit:2;">
    <g transform="matrix(1,0,0,1,-175.968,-252.774)">
        <g id="Vrstva-1" serif:id="Vrstva 1">
            <g transform="matrix(-1,0,0,1,252.514,339.231)">
                <path d="M69.082,-84.01L76.546,-84.01C76.546,-37.613 38.934,0 -7.464,0L-7.464,-7.465C34.811,-7.465 69.082,-41.735 69.082,-84.01" style="fill:rgb(238,170,51);fill-rule:nonzero;"/>
            </g>
            <g transform="matrix(1,0,0,1,188.553,326.646)">
                <path d="M0,-71.425C0,-31.978 31.978,0 71.425,0L71.425,-71.425L0,-71.425Z" style="fill:rgb(38,26,13);fill-rule:nonzero;"/>
            </g>
            <g transform="matrix(1,0,0,1,307.288,288.586)">
                <path d="M0,-33.603L0,0L-6.673,0L-6.673,-8.257C-6.481,-12.337 -6.337,-16.417 -6.145,-20.499L-6.385,-20.594L-9.409,-11.761L-11.089,-7.201L-17.81,-7.201L-19.49,-11.761L-22.514,-20.594L-22.754,-20.499C-22.61,-16.417 -22.418,-12.337 -22.274,-8.257L-22.274,0L-28.899,0L-28.899,-33.603L-22.034,-33.603L-16.754,-20.882C-16.082,-19.202 -14.93,-16.274 -14.545,-15.026L-14.354,-15.026C-13.969,-16.274 -12.817,-19.202 -12.146,-20.882L-6.865,-33.603L0,-33.603Z" style="fill:rgb(38,26,13);fill-rule:nonzero;"/>
            </g>
            <g transform="matrix(1,0,0,1,324.326,272.648)">
                <path d="M0,6.433L0,-0.047C0,-2.688 -0.96,-3.792 -2.785,-3.792C-4.608,-3.792 -5.569,-2.688 -5.569,-0.047L-5.569,6.433C-5.569,9.074 -4.608,10.225 -2.785,10.225C-0.96,10.225 0,9.074 0,6.433M-12.241,6.433L-12.241,-0.047C-12.241,-6.528 -8.737,-10.129 -2.785,-10.129C3.168,-10.129 6.672,-6.528 6.672,-0.047L6.672,6.433C6.672,12.913 3.168,16.562 -2.785,16.562C-8.737,16.562 -12.241,12.913 -12.241,6.433" style="fill:rgb(38,26,13);fill-rule:nonzero;"/>
            </g>
            <g transform="matrix(1,0,0,1,349.238,288.009)">
                <path d="M0,-24.914L0,-18.674C-0.912,-19.105 -1.872,-19.346 -3.072,-19.346C-5.809,-19.346 -7.489,-18.098 -7.489,-15.409L-7.489,0.576L-14.017,0.576L-14.017,-24.866L-9.697,-24.866L-9.217,-22.178C-7.873,-24.338 -5.665,-25.49 -2.784,-25.49C-1.632,-25.49 -0.672,-25.298 0,-24.914" style="fill:rgb(38,26,13);fill-rule:nonzero;"/>
            </g>
            <g transform="matrix(1,0,0,1,362.773,273.08)">
                <path d="M0,5.617L-2.208,5.617C-4.176,5.617 -5.424,6.481 -5.424,8.209C-5.424,9.457 -4.752,10.609 -2.928,10.609C-1.152,10.609 0,9.457 0,7.489L0,5.617ZM6.577,-0.672L6.577,15.506L1.392,15.506L1.008,13.105C0.096,14.834 -1.632,16.178 -4.512,16.178C-9.217,16.178 -12.097,12.817 -12.097,8.209C-12.097,2.688 -7.969,0.096 -2.352,0.096L0,0.096L0,-0.672C0,-2.928 -0.48,-4.272 -2.256,-4.272C-3.408,-4.272 -4.561,-3.696 -4.8,-2.016L-11.377,-2.016C-11.137,-7.393 -7.729,-10.561 -2.16,-10.561C3.937,-10.561 6.577,-7.153 6.577,-0.672" style="fill:rgb(38,26,13);fill-rule:nonzero;"/>
            </g>
            <g transform="matrix(1,0,0,1,392.197,288.585)">
                <path d="M0,-25.442L-6.769,0L-14.161,0L-20.93,-25.442L-13.969,-25.442L-12.433,-17.521C-11.761,-14.161 -10.945,-9.84 -10.609,-7.585L-10.321,-7.585C-9.937,-9.84 -9.121,-14.209 -8.497,-17.521L-6.96,-25.442L0,-25.442Z" style="fill:rgb(38,26,13);fill-rule:nonzero;"/>
            </g>
            <g transform="matrix(1,0,0,1,393.06,271.351)">
                <path d="M0,9.122L6.528,9.122C6.624,10.37 7.248,12.002 9.648,12.002C11.377,12.002 12.385,11.185 12.385,9.985C12.385,6.001 0.432,7.153 0.432,-1.44C0.432,-6.096 3.84,-8.832 9.217,-8.832C15.313,-8.832 17.81,-5.184 18.193,-0.383L11.904,-0.383C11.761,-2.016 11.089,-3.071 9.217,-3.071C7.824,-3.071 6.912,-2.399 6.912,-1.44C6.912,2.113 18.913,0.721 18.913,9.937C18.913,14.738 15.601,17.954 9.889,17.954C3.264,17.954 0.144,13.634 0,9.122" style="fill:rgb(38,26,13);fill-rule:nonzero;"/>
            </g>
            <g transform="matrix(1,0,0,1,423.012,264.008)">
                <path d="M0,14.353L-1.2,15.553L-1.2,24.578L-7.681,24.578L-7.681,-10.225L-1.2,-10.225L-1.2,6.96L3.504,-0.865L11.041,-0.865L4.32,9.216L12.145,24.578L4.848,24.578L0,14.353Z" style="fill:rgb(38,26,13);fill-rule:nonzero;"/>
            </g>
            <g transform="matrix(1,0,0,1,446.435,282.68)">
                <path d="M0,-23.329L-4.513,-23.329L-0.961,-29.906L4.464,-29.906L0,-23.329ZM0.672,-3.983L-1.536,-3.983C-3.505,-3.983 -4.753,-3.119 -4.753,-1.392C-4.753,-0.143 -4.081,1.009 -2.257,1.009C-0.48,1.009 0.672,-0.143 0.672,-2.111L0.672,-3.983ZM7.248,-10.272L7.248,5.905L2.063,5.905L1.68,3.505C0.768,5.233 -0.961,6.577 -3.841,6.577C-8.545,6.577 -11.426,3.217 -11.426,-1.392C-11.426,-6.912 -7.297,-9.504 -1.681,-9.504L0.672,-9.504L0.672,-10.272C0.672,-12.528 0.191,-13.872 -1.585,-13.872C-2.736,-13.872 -3.889,-13.296 -4.129,-11.616L-10.705,-11.616C-10.466,-16.993 -7.057,-20.161 -1.488,-20.161C4.608,-20.161 7.248,-16.753 7.248,-10.272" style="fill:rgb(38,26,13);fill-rule:nonzero;"/>
            </g>
            <g transform="matrix(1,0,0,1,466.546,271.351)">
                <path d="M0,9.122L6.528,9.122C6.624,10.37 7.248,12.002 9.648,12.002C11.377,12.002 12.385,11.185 12.385,9.985C12.385,6.001 0.432,7.153 0.432,-1.44C0.432,-6.096 3.84,-8.832 9.217,-8.832C15.313,-8.832 17.81,-5.184 18.193,-0.383L11.904,-0.383C11.761,-2.016 11.089,-3.071 9.217,-3.071C7.824,-3.071 6.912,-2.399 6.912,-1.44C6.912,2.113 18.913,0.721 18.913,9.937C18.913,14.738 15.601,17.954 9.889,17.954C3.264,17.954 0.144,13.634 0,9.122" style="fill:rgb(38,26,13);fill-rule:nonzero;"/>
            </g>
            <g transform="matrix(1,0,0,1,500.914,263.144)">
                <path d="M0,19.681L0,25.826L-2.111,25.826C-7.584,25.826 -10.992,22.226 -10.992,16.561L-10.992,5.904L-14.305,5.904L-14.305,-0.001L-10.992,-0.001L-10.992,-6.145L-4.512,-6.145L-4.512,-0.001L-0.336,-0.001L-0.336,5.904L-4.512,5.904L-4.512,16.657C-4.512,18.769 -3.6,19.681 -1.632,19.681L0,19.681Z" style="fill:rgb(38,26,13);fill-rule:nonzero;"/>
            </g>
            <g transform="matrix(1,0,0,1,515.554,273.08)">
                <path d="M0,5.617L-2.208,5.617C-4.176,5.617 -5.424,6.481 -5.424,8.209C-5.424,9.457 -4.752,10.609 -2.928,10.609C-1.152,10.609 0,9.457 0,7.489L0,5.617ZM6.577,-0.672L6.577,15.506L1.393,15.506L1.009,13.105C0.097,14.834 -1.632,16.178 -4.512,16.178C-9.217,16.178 -12.097,12.817 -12.097,8.209C-12.097,2.688 -7.969,0.096 -2.352,0.096L0,0.096L0,-0.672C0,-2.928 -0.479,-4.272 -2.256,-4.272C-3.408,-4.272 -4.561,-3.696 -4.8,-2.016L-11.377,-2.016C-11.137,-7.393 -7.729,-10.561 -2.16,-10.561C3.937,-10.561 6.577,-7.153 6.577,-0.672" style="fill:rgb(38,26,13);fill-rule:nonzero;"/>
            </g>
            <g transform="matrix(1,0,0,1,544.977,288.585)">
                <path d="M0,-25.442L-6.769,0L-14.161,0L-20.93,-25.442L-13.969,-25.442L-12.433,-17.521C-11.761,-14.161 -10.944,-9.84 -10.608,-7.585L-10.32,-7.585C-9.937,-9.84 -9.12,-14.209 -8.496,-17.521L-6.96,-25.442L0,-25.442Z" style="fill:rgb(38,26,13);fill-rule:nonzero;"/>
            </g>
            <g transform="matrix(1,0,0,1,553.377,279.416)">
                <path d="M0,-7.152L0,-5.808L5.424,-5.808L5.424,-7.152C5.424,-9.745 4.464,-10.848 2.64,-10.848C0.912,-10.848 0,-9.745 0,-7.152M12.24,1.057C11.713,6.529 8.208,9.745 2.544,9.745C-3.169,9.745 -6.577,6.001 -6.577,-0.288L-6.577,-7.056C-6.577,-13.249 -3.169,-16.897 2.592,-16.897C8.448,-16.897 11.904,-13.249 11.904,-7.056L11.904,-1.343L0,-1.343L0,-0.288C0,2.353 0.912,3.505 2.64,3.505C4.608,3.505 5.184,2.785 5.616,1.057L12.24,1.057Z" style="fill:rgb(38,26,13);fill-rule:nonzero;"/>
            </g>
            <g transform="matrix(1,0,0,1,581.169,270.439)">
                <path d="M0,2.065C0,-0.431 -0.912,-1.68 -2.545,-1.68C-4.417,-1.68 -5.425,-0.431 -5.425,2.065L-5.425,8.689C-5.425,11.185 -4.417,12.482 -2.545,12.482C-0.912,12.482 0,11.185 0,8.689L0,2.065ZM6.672,2.065L6.672,8.689C6.672,14.69 3.408,18.722 -1.585,18.722C-3.648,18.722 -5.761,17.426 -7.057,15.938L-7.345,18.194L-11.81,18.194L-11.81,-16.657L-5.425,-16.657L-5.425,-6.528C-4.321,-7.392 -2.977,-7.92 -1.585,-7.92C3.359,-7.92 6.672,-3.936 6.672,2.065" style="fill:rgb(38,26,13);fill-rule:nonzero;"/>
            </g>
            <g transform="matrix(1,0,0,1,610.352,278.121)">
                <path d="M0,-5.137L0,10.465L-6.576,10.465L-6.576,-5.137C-6.576,-8.257 -7.44,-9.362 -9.024,-9.362C-10.705,-9.362 -11.761,-8.113 -11.761,-5.616L-11.761,10.465L-18.289,10.465L-18.289,-14.978L-13.969,-14.978L-13.489,-12.385C-12.193,-14.497 -10.129,-15.602 -7.488,-15.602C-2.784,-15.602 0,-12.049 0,-5.137" style="fill:rgb(38,26,13);fill-rule:nonzero;"/>
            </g>
            <g transform="matrix(1,0,0,1,619.567,282.008)">
                <path d="M0,-22.657L-4.512,-22.657L-0.96,-29.234L4.465,-29.234L0,-22.657ZM-4.656,-18.865L1.92,-18.865L1.92,6.577L-4.656,6.577L-4.656,-18.865Z" style="fill:rgb(38,26,13);fill-rule:nonzero;"/>
            </g>
            <g transform="matrix(1,0,0,1,288.614,323.08)">
                <path d="M0,5.617L-2.208,5.617C-4.176,5.617 -5.424,6.481 -5.424,8.209C-5.424,9.457 -4.752,10.609 -2.928,10.609C-1.152,10.609 0,9.457 0,7.489L0,5.617ZM6.577,-0.672L6.577,15.506L1.392,15.506L1.008,13.105C0.096,14.834 -1.632,16.178 -4.512,16.178C-9.217,16.178 -12.097,12.817 -12.097,8.209C-12.097,2.688 -7.969,0.096 -2.352,0.096L0,0.096L0,-0.672C0,-2.928 -0.48,-4.272 -2.256,-4.272C-3.408,-4.272 -4.561,-3.696 -4.8,-2.016L-11.377,-2.016C-11.137,-7.393 -7.729,-10.561 -2.16,-10.561C3.937,-10.561 6.577,-7.153 6.577,-0.672" style="fill:rgb(38,26,13);fill-rule:nonzero;"/>
            </g>
            <g transform="matrix(1,0,0,1,321.83,313.144)">
                <path d="M0,19.681L0,25.826L-2.112,25.826C-7.584,25.826 -10.993,22.226 -10.993,16.561L-10.993,5.904L-14.305,5.904L-14.305,-0.001L-10.993,-0.001L-10.993,-6.145L-4.512,-6.145L-4.512,-0.001L-0.336,-0.001L-0.336,5.904L-4.512,5.904L-4.512,16.657C-4.512,18.769 -3.6,19.681 -1.632,19.681L0,19.681Z" style="fill:rgb(38,26,13);fill-rule:nonzero;"/>
            </g>
            <g transform="matrix(1,0,0,1,337.333,322.648)">
                <path d="M0,6.433L0,-0.047C0,-2.688 -0.96,-3.792 -2.785,-3.792C-4.608,-3.792 -5.569,-2.688 -5.569,-0.047L-5.569,6.433C-5.569,9.074 -4.608,10.225 -2.785,10.225C-0.96,10.225 0,9.074 0,6.433M-12.241,6.433L-12.241,-0.047C-12.241,-6.528 -8.737,-10.129 -2.785,-10.129C3.168,-10.129 6.672,-6.528 6.672,-0.047L6.672,6.433C6.672,12.913 3.168,16.562 -2.785,16.562C-8.737,16.562 -12.241,12.913 -12.241,6.433" style="fill:rgb(38,26,13);fill-rule:nonzero;"/>
            </g>
            <g transform="matrix(1,0,0,1,360.037,337.194)">
                <path d="M0,-14.593C0,-17.089 -0.912,-18.385 -2.544,-18.385C-4.417,-18.385 -5.425,-17.089 -5.425,-14.593L-5.425,-7.968C-5.425,-5.472 -4.417,-4.224 -2.544,-4.224C-0.912,-4.224 0,-5.472 0,-7.968L0,-14.593ZM6.672,-14.593L6.672,-7.968C6.672,-1.968 3.36,2.016 -1.584,2.016C-2.977,2.016 -4.321,1.488 -5.425,0.625L-5.425,10.033L-11.809,10.033L-11.809,-24.098L-7.345,-24.098L-7.057,-21.842C-5.761,-23.329 -3.648,-24.626 -1.584,-24.626C3.408,-24.626 6.672,-20.594 6.672,-14.593" style="fill:rgb(38,26,13);fill-rule:nonzero;"/>
            </g>
            <g transform="matrix(1,0,0,1,376.932,329.417)">
                <path d="M0,-7.152L0,-5.808L5.424,-5.808L5.424,-7.152C5.424,-9.745 4.464,-10.848 2.64,-10.848C0.912,-10.848 0,-9.745 0,-7.152M12.241,1.057C11.713,6.529 8.208,9.745 2.544,9.745C-3.168,9.745 -6.577,6.001 -6.577,-0.288L-6.577,-7.056C-6.577,-13.249 -3.168,-16.897 2.592,-16.897C8.449,-16.897 11.905,-13.249 11.905,-7.056L11.905,-1.343L0,-1.343L0,-0.288C0,2.353 0.912,3.505 2.64,3.505C4.608,3.505 5.184,2.785 5.616,1.057L12.241,1.057Z" style="fill:rgb(38,26,13);fill-rule:nonzero;"/>
            </g>
            <g transform="matrix(1,0,0,1,411.204,328.121)">
                <path d="M0,-5.137L0,10.465L-6.576,10.465L-6.576,-5.137C-6.576,-8.257 -7.44,-9.362 -9.024,-9.362C-10.705,-9.362 -11.761,-8.113 -11.761,-5.616L-11.761,10.465L-18.289,10.465L-18.289,-14.978L-13.969,-14.978L-13.489,-12.385C-12.193,-14.497 -10.129,-15.602 -7.488,-15.602C-2.784,-15.602 0,-12.049 0,-5.137" style="fill:rgb(38,26,13);fill-rule:nonzero;"/>
            </g>
            <g transform="matrix(1,0,0,1,425.892,332.681)">
                <path d="M0,-23.329L-4.513,-23.329L-0.96,-29.906L4.465,-29.906L0,-23.329ZM0.672,-3.983L-1.536,-3.983C-3.504,-3.983 -4.752,-3.119 -4.752,-1.392C-4.752,-0.143 -4.08,1.009 -2.256,1.009C-0.48,1.009 0.672,-0.143 0.672,-2.111L0.672,-3.983ZM7.249,-10.272L7.249,5.905L2.064,5.905L1.681,3.505C0.769,5.233 -0.96,6.577 -3.84,6.577C-8.545,6.577 -11.425,3.217 -11.425,-1.392C-11.425,-6.912 -7.297,-9.504 -1.68,-9.504L0.672,-9.504L0.672,-10.272C0.672,-12.528 0.192,-13.872 -1.584,-13.872C-2.736,-13.872 -3.889,-13.296 -4.128,-11.616L-10.705,-11.616C-10.465,-16.993 -7.057,-20.161 -1.488,-20.161C4.608,-20.161 7.249,-16.753 7.249,-10.272" style="fill:rgb(38,26,13);fill-rule:nonzero;"/>
            </g>
            <g transform="matrix(1,0,0,1,442.019,332.009)">
                <path d="M0,-22.657L-3.889,-29.234L0.384,-29.234L2.496,-26.017L4.561,-29.234L8.833,-29.234L4.944,-22.657L0,-22.657ZM9.937,-18.913L9.937,-12.673C9.024,-13.104 8.064,-13.344 6.864,-13.344C4.128,-13.344 2.448,-12.096 2.448,-9.408L2.448,6.577L-4.08,6.577L-4.08,-18.865L0.24,-18.865L0.72,-16.177C2.064,-18.337 4.272,-19.489 7.152,-19.489C8.305,-19.489 9.265,-19.297 9.937,-18.913" style="fill:rgb(38,26,13);fill-rule:nonzero;"/>
            </g>
            <g transform="matrix(1,0,0,1,453.154,321.352)">
                <path d="M0,9.122L6.528,9.122C6.624,10.37 7.248,12.002 9.648,12.002C11.377,12.002 12.385,11.185 12.385,9.985C12.385,6.001 0.432,7.153 0.432,-1.44C0.432,-6.096 3.84,-8.832 9.217,-8.832C15.313,-8.832 17.81,-5.184 18.193,-0.383L11.904,-0.383C11.761,-2.016 11.089,-3.071 9.217,-3.071C7.824,-3.071 6.912,-2.399 6.912,-1.44C6.912,2.113 18.913,0.721 18.913,9.937C18.913,14.738 15.601,17.954 9.889,17.954C3.264,17.954 0.144,13.634 0,9.122" style="fill:rgb(38,26,13);fill-rule:nonzero;"/>
            </g>
            <g transform="matrix(1,0,0,1,483.106,314.008)">
                <path d="M0,14.353L-1.2,15.553L-1.2,24.578L-7.681,24.578L-7.681,-10.225L-1.2,-10.225L-1.2,6.96L3.504,-0.865L11.041,-0.865L4.32,9.216L12.146,24.578L4.849,24.578L0,14.353Z" style="fill:rgb(38,26,13);fill-rule:nonzero;"/>
            </g>
            <g transform="matrix(1,0,0,1,506.53,332.681)">
                <path d="M0,-23.329L-4.513,-23.329L-0.961,-29.906L4.464,-29.906L0,-23.329ZM0.672,-3.983L-1.536,-3.983C-3.505,-3.983 -4.753,-3.119 -4.753,-1.392C-4.753,-0.143 -4.081,1.009 -2.257,1.009C-0.48,1.009 0.672,-0.143 0.672,-2.111L0.672,-3.983ZM7.248,-10.272L7.248,5.905L2.063,5.905L1.68,3.505C0.768,5.233 -0.961,6.577 -3.841,6.577C-8.545,6.577 -11.426,3.217 -11.426,-1.392C-11.426,-6.912 -7.297,-9.504 -1.681,-9.504L0.672,-9.504L0.672,-10.272C0.672,-12.528 0.191,-13.872 -1.585,-13.872C-2.736,-13.872 -3.889,-13.296 -4.129,-11.616L-10.705,-11.616C-10.466,-16.993 -7.057,-20.161 -1.488,-20.161C4.608,-20.161 7.248,-16.753 7.248,-10.272" style="fill:rgb(38,26,13);fill-rule:nonzero;"/>
            </g>
            <g transform="matrix(1,0,0,1,541.91,320.488)">
                <path d="M0,10.993L0,6.049L-5.088,6.049C-8.785,6.049 -10.753,7.776 -10.753,10.993C-10.753,14.306 -8.497,15.889 -5.232,15.889C-2.016,15.889 0,13.873 0,10.993M2.832,0.672L2.832,18.097L0.384,18.097L0.145,15.745C-1.008,17.426 -2.928,18.674 -5.664,18.674C-10.272,18.674 -13.633,15.842 -13.633,10.945C-13.633,6.097 -10.513,3.408 -4.992,3.408L0,3.408L0,0.72C0,-2.977 -1.729,-4.945 -4.992,-4.945C-7.873,-4.945 -9.841,-3.313 -10.033,-0.528L-12.865,-0.528C-12.673,-4.849 -9.553,-7.681 -4.896,-7.681C-0.096,-7.681 2.832,-4.464 2.832,0.672" style="fill:rgb(238,170,51);fill-rule:nonzero;"/>
            </g>
            <g transform="matrix(0,1,1,0,552.277,334.554)">
                <path d="M2.256,-2.257C0.912,-2.257 0,-1.345 0,-0.001C0,1.344 0.912,2.256 2.256,2.256C3.601,2.256 4.513,1.344 4.513,-0.001C4.513,-1.345 3.601,-2.257 2.256,-2.257" style="fill:rgb(238,170,51);fill-rule:nonzero;"/>
            </g>
            <g transform="matrix(1,0,0,1,558.133,320.872)">
                <path d="M0,10.226L2.832,10.226C2.832,13.538 4.896,15.506 8.353,15.506C11.473,15.506 13.297,13.922 13.297,11.234C13.297,5.089 0.336,7.345 0.336,-1.295C0.336,-5.376 3.36,-8.064 7.92,-8.064C12.625,-8.064 15.745,-4.992 15.745,-0.336L12.913,-0.336C12.913,-3.456 11.089,-5.328 7.92,-5.328C4.944,-5.328 3.216,-3.792 3.216,-1.2C3.216,4.705 16.177,2.449 16.177,11.33C16.177,15.506 13.057,18.29 8.353,18.29C3.36,18.29 0,15.074 0,10.226" style="fill:rgb(238,170,51);fill-rule:nonzero;"/>
            </g>
            <g transform="matrix(0,1,1,0,580.309,334.554)">
                <path d="M2.256,-2.257C0.912,-2.257 0,-1.345 0,-0.001C0,1.344 0.912,2.256 2.256,2.256C3.601,2.256 4.513,1.344 4.513,-0.001C4.513,-1.345 3.601,-2.257 2.256,-2.257" style="fill:rgb(238,170,51);fill-rule:nonzero;"/>
            </g>
        </g>
    </g>
</svg>
