<svg width="64" height="64" viewBox="0 0 64 64" fill="none" xmlns="http://www.w3.org/2000/svg">
<path d="M15.4667 16.2667C13.3333 14.1334 4.26667 13.6 1.33333 13.3334C1.06667 13.3334 0.8 13.3334 0.533333 13.6C0.266667 13.8667 0 14.4 0 14.6667V38.6667C0 39.4667 0.533333 40 1.33333 40H9.33333C9.86667 40 10.4 39.7334 10.6667 39.2C10.6667 38.4 15.4667 24.2667 16 17.3334C16 17.0667 16 16.5334 15.4667 16.2667Z" fill="white"/>
<path d="M36.8001 20C32.0001 17.8667 29.8668 18.9333 25.6001 23.2C23.7335 25.0667 22.4001 27.7333 22.6668 28.8C22.6668 29.0667 22.6668 29.0667 23.2001 29.3333C24.5335 29.8667 26.4001 30.1333 28.2668 27.2C28.5335 26.9333 28.8001 26.6667 29.3335 26.6667C30.1335 26.6667 30.4001 26.4 31.2001 26.1333C31.7335 25.8667 32.2668 25.6 33.0668 25.3333C33.3335 25.3333 33.3335 25.3333 33.6001 25.3333C33.8668 25.3333 34.4001 25.6 34.6668 25.6C36.0001 26.9334 38.4001 28.8 40.8001 30.9334C44.5335 33.8667 48.2668 37.0667 50.1335 39.4667H50.4001C48.5335 34.1333 45.3335 25.0667 44.0001 22.6667C41.3335 21.8667 38.9335 20.8 36.8001 20Z" fill="white"/>
<path d="M62.6667 16C52.2667 16 46.4 18.6667 46.1334 18.6667C45.8667 18.9333 45.6 19.2 45.3334 19.4667C45.3334 19.7333 45.3334 20.2667 45.6 20.5333C47.2 23.2 52.5334 37.8667 53.3334 41.6C53.6 42.1333 54.1334 42.6667 54.6667 42.6667H62.6667C63.4667 42.6667 64 42.1333 64 41.3333V17.3333C64 16.5333 63.4667 16 62.6667 16Z" fill="white"/>
<path d="M38.6666 33.0667C36.5332 31.2 34.3999 29.6 32.7999 28.2667C32.5332 28.5334 31.9999 28.5334 31.9999 28.8C31.1999 29.0667 30.9332 29.3334 29.8666 29.3334C27.7332 32 25.0666 33.0667 22.1332 32C20.7999 31.7334 19.9999 30.6667 19.7332 29.6C19.1999 26.9334 21.5999 23.2 23.4666 21.3334H18.1332C17.0666 26.6667 15.1999 33.6 13.8666 37.3334C14.9332 38.4 15.9999 39.7334 16.7999 40.2667C21.8666 44.5334 27.7332 48.8 28.7999 49.6C29.5999 50.1334 31.1999 50.6667 31.9999 50.6667C32.2666 50.6667 32.5332 50.6667 32.7999 50.6667L28.5332 46.4C27.9999 45.8667 27.9999 45.0667 28.5332 44.5334C29.0666 44 29.8666 44 30.3999 44.5334L35.7332 49.8667C36.2666 50.4 36.7999 50.1334 37.3332 50.1334C38.1332 49.8667 38.3999 49.3334 38.6666 48.5334L32.5332 42.4C31.9999 41.8667 31.9999 41.0667 32.5332 40.5334C33.0666 40 33.8666 40 34.3999 40.5334L41.0666 47.2C41.3332 47.4667 42.3999 47.4667 43.1999 47.2C43.4666 46.9334 43.9999 46.6667 44.2666 46.1334L36.7999 38.6667C36.2666 38.1334 36.2666 37.3334 36.7999 36.8C37.3332 36.2667 38.1332 36.2667 38.6666 36.8L46.3999 44.5334C46.9332 44.8 47.4666 44.5334 47.9999 44.2667C48.2666 44 48.7999 43.2 48.2666 42.1334C47.1999 39.7334 42.6666 36.2667 38.6666 33.0667Z" fill="white"/>
</svg>
