<svg width="64" height="64" viewBox="0 0 64 64" fill="none" xmlns="http://www.w3.org/2000/svg">
<path d="M61.8667 12.3734V10.6667C61.8667 10.0267 61.44 9.60004 60.8 9.60004C53.76 9.60004 43.7333 10.24 38.6133 15.1467C35.4133 18.3467 34.9867 24.1067 36.2667 28.3734C39.04 24.96 42.4533 22.4 46.5067 20.48C47.1467 20.2667 47.5733 20.48 48 20.9067C48.2133 21.5467 48 21.9734 47.5733 22.4C46.5067 22.8267 45.6533 23.4667 44.8 23.8934C44.8 23.8934 44.5867 23.8934 44.5867 24.1067C36.9067 29.0134 33.0667 36.9067 31.36 44.8C29.0133 28.3734 21.9733 21.5467 17.92 18.3467C17.28 18.1334 16.8533 17.92 16.64 17.7067C16.2133 17.4934 16 17.28 15.5733 17.0667C15.1467 16.64 15.1467 16 15.36 15.5734C15.7867 15.1467 16.4267 14.9334 16.8533 15.36C18.9867 16.8534 23.2533 19.6267 27.0933 26.0267C29.2267 21.5467 29.0133 14.72 25.3867 11.0934C20.2667 5.97337 10.4533 5.54671 3.2 5.54671C2.56 5.33337 2.13333 5.76004 2.13333 6.40004V8.10671C2.13333 14.9334 2.13333 22.8267 6.61333 27.52C8.74666 29.6534 12.8 31.1467 17.0667 31.1467C19.84 31.1467 22.1867 30.5067 23.8933 29.6534C27.3067 35.2 29.8667 44.16 29.8667 57.6C29.8667 58.24 30.2933 58.6667 30.9333 58.6667C31.5733 58.6667 32 58.24 32 57.6C32 49.7067 33.28 39.8934 38.6133 32.64C38.6133 32.64 38.6133 32.64 38.8267 32.8534C40.5333 34.56 43.3067 35.4134 46.9333 35.4134C51.2 35.4134 55.2533 34.1334 57.3867 31.7867C61.8667 27.0934 61.8667 19.2 61.8667 12.3734Z" fill="white"/>
</svg>
